# xmcd
#
# Track frame offsets: 
#        150
#        18135
#        36532
#        70870
#        82517
#        111440
#        150572
#        201347
#        220890
#        240772
#        266807
#
# Disc length: 3911 seconds
#
# Revision: 1
# Processed by: cddbd v1.5.2PL0 Copyright (c) Steve Scherf et al.
# Submitted via: ExactAudioCopy v0.90b4
#
DISCID=8c0f450b
DTITLE=November - Live
DYEAR=1993
DGENRE=Progressive Rock
TTITLE0=Långt Från Sergel
TTITLE1=Tillbaks Till Stockholm
TTITLE2=Allt Genom Dig
TTITLE3=Mouchta (Drömmen Om Malin)
TTITLE4=Mina Fotspår Fylls Av Vatten
TTITLE5=Kommer Långsamt
TTITLE6=Sekunder
TTITLE7=Åttonde
TTITLE8=Mina Fotspår Fylls Av Vatten
TTITLE9=Tillbaks Till Stockholm
TTITLE10=Allt Genom Dig
EXTD=
EXTT0=
EXTT1=
EXTT2=
EXTT3=
EXTT4=
EXTT5=
EXTT6=
EXTT7=
EXTT8=
EXTT9=
EXTT10=
PLAYORDER=
